<svg xmlns="http://www.w3.org/2000/svg" viewBox="0 0 48 48"><defs><style>.cls-1{fill:#4ac6b7;}.cls-2{fill:#37b7a4;}.cls-3{fill:#29a892;}.cls-4{fill:#1b967e;}.cls-5{fill:#ffbc5a;}.cls-6{fill:#e05555;}.cls-7{fill:#d3dbef;}.cls-8{fill:#8491c1;}.cls-9{fill:#231f20;}</style></defs><title>Secure Payment</title><g id="Secure_Payment" data-name="Secure Payment"><rect class="cls-1" x="6" y="6" width="40" height="28" rx="2" ry="2"/><path class="cls-2" d="M44,6H41a2,2,0,0,1,2,2V32a2,2,0,0,1-2,2h3a2,2,0,0,0,2-2V8A2,2,0,0,0,44,6Z"/><rect class="cls-3" x="6" y="11" width="40" height="7"/><rect class="cls-4" x="43" y="11" width="3" height="7"/><circle class="cls-5" cx="38" cy="26" r="3"/><circle class="cls-6" cx="33" cy="26" r="3"/><path class="cls-7" d="M10.0026,42C8.2453,41.3561,2,38.675,2,33.0863V24.9423L10,22l8,2.9423v8.1441C18,38.7024,11.763,41.3618,10.0026,42Z"/><path class="cls-8" d="M10,34a.9986.9986,0,0,1-.707-.293l-2-2A1,1,0,0,1,8.707,30.293l1.1846,1.1846L12.2,28.4A1,1,0,1,1,13.8,29.6l-3,4a.9979.9979,0,0,1-.729.3975C10.0474,33.999,10.0234,34,10,34Z"/><path class="cls-9" d="M44,5H8A3.0033,3.0033,0,0,0,5,8V22.7736l-3.3452,1.23A1,1,0,0,0,1,24.9424v8.1436c0,6.2,6.6274,9.1094,8.6587,9.8535A1.0137,1.0137,0,0,0,10.0024,43a.9961.9961,0,0,0,.3408-.06c1.8092-.6569,7.2534-3.0276,8.4224-7.94H44a3.0033,3.0033,0,0,0,3-3V8A3.0033,3.0033,0,0,0,44,5ZM7,12H45v5H7Zm3.0039,28.9307C7.9814,40.1348,3,37.7012,3,33.0859V25.64l7-2.5742L17,25.64v7.4463C17,37.7246,12.0249,40.1416,10.0039,40.9307ZM45,32a1.001,1.001,0,0,1-1,1H19V24.9424a1,1,0,0,0-.6548-.9385l-8-2.9424a.9993.9993,0,0,0-.69,0L7,22.038V19H45ZM7,10V8A1.001,1.001,0,0,1,8,7H44a1.001,1.001,0,0,1,1,1v2Z"/><path class="cls-9" d="M33,30a3.9605,3.9605,0,0,0,2.49-.8943,4,4,0,1,0,0-6.2114A3.9605,3.9605,0,0,0,33,22a4,4,0,0,0,0,8Zm7-4a2.0023,2.0023,0,0,1-2,2,1.968,1.968,0,0,1-1.3019-.4858,3.9479,3.9479,0,0,0,0-3.0283A1.9682,1.9682,0,0,1,38,24,2.0023,2.0023,0,0,1,40,26Zm-7-2a2,2,0,1,1-2,2A2.0023,2.0023,0,0,1,33,24Z"/><path class="cls-9" d="M12.2,28.4,9.8916,31.4775,8.707,30.293A1,1,0,0,0,7.293,31.707l2,2A.9986.9986,0,0,0,10,34c.0234,0,.0474-.001.0708-.0029A.9979.9979,0,0,0,10.8,33.6l3-4A1,1,0,1,0,12.2,28.4Z"/></g></svg>